<mxfile host="app.diagrams.net" agent="Mozilla/5.0 (Macintosh; Intel Mac OS X 10_15_7) AppleWebKit/537.36 (KHTML, like Gecko) Chrome/133.0.0.0 Safari/537.36" version="26.1.3">
  <diagram name="Страница — 1" id="9U1M8PizEk-UmJtCfZqd">
    <mxGraphModel dx="1129" dy="636" grid="1" gridSize="10" guides="1" tooltips="1" connect="1" arrows="1" fold="1" page="1" pageScale="1" pageWidth="2339" pageHeight="3300" math="0" shadow="0">
      <root>
        <mxCell id="0" />
        <mxCell id="1" parent="0" />
        <mxCell id="xFUZLdhs_T35akEsMAt7-17" style="rounded=1;orthogonalLoop=1;jettySize=auto;html=1;exitX=0;exitY=1;exitDx=0;exitDy=0;entryX=0.75;entryY=0;entryDx=0;entryDy=0;fixDash=0;snapToPoint=0;" edge="1" parent="1" source="xFUZLdhs_T35akEsMAt7-1" target="xFUZLdhs_T35akEsMAt7-2">
          <mxGeometry relative="1" as="geometry" />
        </mxCell>
        <mxCell id="xFUZLdhs_T35akEsMAt7-18" style="rounded=1;orthogonalLoop=1;jettySize=auto;html=1;exitX=0.25;exitY=1;exitDx=0;exitDy=0;entryX=0.5;entryY=0;entryDx=0;entryDy=0;fixDash=0;snapToPoint=0;" edge="1" parent="1" source="xFUZLdhs_T35akEsMAt7-1" target="xFUZLdhs_T35akEsMAt7-5">
          <mxGeometry relative="1" as="geometry" />
        </mxCell>
        <mxCell id="xFUZLdhs_T35akEsMAt7-21" style="rounded=1;orthogonalLoop=1;jettySize=auto;html=1;exitX=0.75;exitY=1;exitDx=0;exitDy=0;entryX=0.25;entryY=0;entryDx=0;entryDy=0;fixDash=0;snapToPoint=0;" edge="1" parent="1" source="xFUZLdhs_T35akEsMAt7-1" target="xFUZLdhs_T35akEsMAt7-6">
          <mxGeometry relative="1" as="geometry" />
        </mxCell>
        <mxCell id="xFUZLdhs_T35akEsMAt7-22" style="rounded=1;orthogonalLoop=1;jettySize=auto;html=1;exitX=1;exitY=0.75;exitDx=0;exitDy=0;entryX=0.5;entryY=0;entryDx=0;entryDy=0;fixDash=0;snapToPoint=0;" edge="1" parent="1" source="xFUZLdhs_T35akEsMAt7-1" target="xFUZLdhs_T35akEsMAt7-7">
          <mxGeometry relative="1" as="geometry" />
        </mxCell>
        <mxCell id="xFUZLdhs_T35akEsMAt7-23" style="rounded=1;orthogonalLoop=1;jettySize=auto;html=1;exitX=1;exitY=0.5;exitDx=0;exitDy=0;entryX=0.5;entryY=0;entryDx=0;entryDy=0;fixDash=0;snapToPoint=0;" edge="1" parent="1" source="xFUZLdhs_T35akEsMAt7-1" target="xFUZLdhs_T35akEsMAt7-8">
          <mxGeometry relative="1" as="geometry" />
        </mxCell>
        <mxCell id="xFUZLdhs_T35akEsMAt7-1" value="Система ресторана" style="rounded=1;whiteSpace=wrap;html=1;imageWidth=24;arcSize=12;shape=ellipse;perimeter=ellipsePerimeter;aspect=fixed;fixDash=0;snapToPoint=0;" vertex="1" parent="1">
          <mxGeometry x="510" y="70" width="110" height="55" as="geometry" />
        </mxCell>
        <mxCell id="xFUZLdhs_T35akEsMAt7-26" style="rounded=1;orthogonalLoop=1;jettySize=auto;html=1;exitX=0;exitY=1;exitDx=0;exitDy=0;entryX=0.5;entryY=0;entryDx=0;entryDy=0;fixDash=0;snapToPoint=0;" edge="1" parent="1" source="xFUZLdhs_T35akEsMAt7-2" target="xFUZLdhs_T35akEsMAt7-9">
          <mxGeometry relative="1" as="geometry" />
        </mxCell>
        <mxCell id="xFUZLdhs_T35akEsMAt7-27" style="rounded=1;orthogonalLoop=1;jettySize=auto;html=1;exitX=0.75;exitY=1;exitDx=0;exitDy=0;entryX=0.5;entryY=0;entryDx=0;entryDy=0;fixDash=0;snapToPoint=0;" edge="1" parent="1" source="xFUZLdhs_T35akEsMAt7-2" target="xFUZLdhs_T35akEsMAt7-10">
          <mxGeometry relative="1" as="geometry" />
        </mxCell>
        <mxCell id="xFUZLdhs_T35akEsMAt7-2" value="Клиент" style="rounded=1;whiteSpace=wrap;html=1;shape=ellipse;perimeter=ellipsePerimeter;aspect=fixed;snapToPoint=0;backgroundOutline=0;fixDash=0;" vertex="1" parent="1">
          <mxGeometry x="290" y="180" width="100" height="33.34" as="geometry" />
        </mxCell>
        <mxCell id="xFUZLdhs_T35akEsMAt7-5" value="Заказ" style="rounded=1;whiteSpace=wrap;html=1;fixDash=0;snapToPoint=0;shape=ellipse;perimeter=ellipsePerimeter;aspect=fixed;" vertex="1" parent="1">
          <mxGeometry x="450" y="180" width="90" height="30" as="geometry" />
        </mxCell>
        <mxCell id="xFUZLdhs_T35akEsMAt7-28" style="rounded=1;orthogonalLoop=1;jettySize=auto;html=1;exitX=0;exitY=1;exitDx=0;exitDy=0;entryX=0.5;entryY=0;entryDx=0;entryDy=0;fixDash=0;snapToPoint=0;" edge="1" parent="1" source="xFUZLdhs_T35akEsMAt7-6" target="xFUZLdhs_T35akEsMAt7-12">
          <mxGeometry relative="1" as="geometry" />
        </mxCell>
        <mxCell id="xFUZLdhs_T35akEsMAt7-29" style="rounded=1;orthogonalLoop=1;jettySize=auto;html=1;exitX=0.5;exitY=1;exitDx=0;exitDy=0;entryX=0.25;entryY=0;entryDx=0;entryDy=0;fixDash=0;snapToPoint=0;" edge="1" parent="1" source="xFUZLdhs_T35akEsMAt7-6" target="xFUZLdhs_T35akEsMAt7-13">
          <mxGeometry relative="1" as="geometry" />
        </mxCell>
        <mxCell id="xFUZLdhs_T35akEsMAt7-30" style="rounded=1;orthogonalLoop=1;jettySize=auto;html=1;exitX=1;exitY=1;exitDx=0;exitDy=0;entryX=0.25;entryY=0;entryDx=0;entryDy=0;fixDash=0;snapToPoint=0;" edge="1" parent="1" source="xFUZLdhs_T35akEsMAt7-6" target="xFUZLdhs_T35akEsMAt7-14">
          <mxGeometry relative="1" as="geometry" />
        </mxCell>
        <mxCell id="xFUZLdhs_T35akEsMAt7-6" value="Блюдо" style="rounded=1;whiteSpace=wrap;html=1;fixDash=0;snapToPoint=0;shape=ellipse;perimeter=ellipsePerimeter;aspect=fixed;" vertex="1" parent="1">
          <mxGeometry x="620" y="180" width="90" height="30" as="geometry" />
        </mxCell>
        <mxCell id="xFUZLdhs_T35akEsMAt7-7" value="Оплата" style="rounded=1;whiteSpace=wrap;html=1;fixDash=0;snapToPoint=0;shape=ellipse;perimeter=ellipsePerimeter;aspect=fixed;" vertex="1" parent="1">
          <mxGeometry x="750" y="180" width="90" height="30" as="geometry" />
        </mxCell>
        <mxCell id="xFUZLdhs_T35akEsMAt7-8" value="Система управления" style="rounded=1;whiteSpace=wrap;html=1;fixDash=0;snapToPoint=0;shape=ellipse;perimeter=ellipsePerimeter;aspect=fixed;" vertex="1" parent="1">
          <mxGeometry x="880" y="180" width="120" height="40" as="geometry" />
        </mxCell>
        <mxCell id="xFUZLdhs_T35akEsMAt7-9" value="Постоянный клиент" style="rounded=1;whiteSpace=wrap;html=1;fixDash=0;snapToPoint=0;shape=ellipse;perimeter=ellipsePerimeter;aspect=fixed;" vertex="1" parent="1">
          <mxGeometry x="200" y="270" width="133.33" height="40" as="geometry" />
        </mxCell>
        <mxCell id="xFUZLdhs_T35akEsMAt7-10" value="Новый клиент" style="rounded=1;whiteSpace=wrap;html=1;fixDash=0;snapToPoint=0;shape=ellipse;perimeter=ellipsePerimeter;aspect=fixed;" vertex="1" parent="1">
          <mxGeometry x="350" y="270" width="133.33" height="40" as="geometry" />
        </mxCell>
        <mxCell id="xFUZLdhs_T35akEsMAt7-12" value="Основное блюдо" style="rounded=1;whiteSpace=wrap;html=1;fixDash=0;snapToPoint=0;shape=ellipse;perimeter=ellipsePerimeter;aspect=fixed;" vertex="1" parent="1">
          <mxGeometry x="520" y="270" width="133.33" height="40" as="geometry" />
        </mxCell>
        <mxCell id="xFUZLdhs_T35akEsMAt7-13" value="Напиток" style="rounded=1;whiteSpace=wrap;html=1;fixDash=0;snapToPoint=0;shape=ellipse;perimeter=ellipsePerimeter;aspect=fixed;" vertex="1" parent="1">
          <mxGeometry x="660" y="270" width="133.33" height="40" as="geometry" />
        </mxCell>
        <mxCell id="xFUZLdhs_T35akEsMAt7-14" value="Десерт" style="rounded=0;whiteSpace=wrap;html=1;collapsible=0;portConstraintRotation=0;glass=0;arcSize=12;fixDash=0;snapToPoint=0;shape=ellipse;aspect=fixed;perimeter=ellipsePerimeter;" vertex="1" parent="1">
          <mxGeometry x="800" y="270" width="133.33" height="40" as="geometry" />
        </mxCell>
        <mxCell id="xFUZLdhs_T35akEsMAt7-58" style="edgeStyle=orthogonalEdgeStyle;rounded=1;orthogonalLoop=1;jettySize=auto;html=1;entryX=0;entryY=0.5;entryDx=0;entryDy=0;" edge="1" parent="1" source="xFUZLdhs_T35akEsMAt7-52" target="xFUZLdhs_T35akEsMAt7-53">
          <mxGeometry relative="1" as="geometry" />
        </mxCell>
        <mxCell id="xFUZLdhs_T35akEsMAt7-69" value="Создает" style="edgeLabel;html=1;align=center;verticalAlign=middle;resizable=0;points=[];rounded=1;" vertex="1" connectable="0" parent="xFUZLdhs_T35akEsMAt7-58">
          <mxGeometry x="-0.0453" y="3" relative="1" as="geometry">
            <mxPoint y="1" as="offset" />
          </mxGeometry>
        </mxCell>
        <mxCell id="xFUZLdhs_T35akEsMAt7-60" style="edgeStyle=orthogonalEdgeStyle;rounded=1;orthogonalLoop=1;jettySize=auto;html=1;entryX=0.5;entryY=0;entryDx=0;entryDy=0;" edge="1" parent="1" source="xFUZLdhs_T35akEsMAt7-52" target="xFUZLdhs_T35akEsMAt7-55">
          <mxGeometry relative="1" as="geometry" />
        </mxCell>
        <mxCell id="xFUZLdhs_T35akEsMAt7-61" value="Выполняет" style="edgeLabel;html=1;align=center;verticalAlign=middle;resizable=0;points=[];rounded=1;" vertex="1" connectable="0" parent="xFUZLdhs_T35akEsMAt7-60">
          <mxGeometry x="-0.1176" y="3" relative="1" as="geometry">
            <mxPoint as="offset" />
          </mxGeometry>
        </mxCell>
        <mxCell id="xFUZLdhs_T35akEsMAt7-52" value="Клиент" style="ellipse;whiteSpace=wrap;html=1;aspect=fixed;rounded=1;" vertex="1" parent="1">
          <mxGeometry x="160" y="840" width="80" height="80" as="geometry" />
        </mxCell>
        <mxCell id="xFUZLdhs_T35akEsMAt7-59" value="включает" style="edgeStyle=orthogonalEdgeStyle;rounded=1;orthogonalLoop=1;jettySize=auto;html=1;exitX=0.5;exitY=1;exitDx=0;exitDy=0;entryX=0.5;entryY=0;entryDx=0;entryDy=0;" edge="1" parent="1" source="xFUZLdhs_T35akEsMAt7-53" target="xFUZLdhs_T35akEsMAt7-54">
          <mxGeometry relative="1" as="geometry" />
        </mxCell>
        <mxCell id="xFUZLdhs_T35akEsMAt7-62" style="rounded=1;orthogonalLoop=1;jettySize=auto;html=1;exitX=0;exitY=1;exitDx=0;exitDy=0;entryX=1;entryY=0;entryDx=0;entryDy=0;" edge="1" parent="1" source="xFUZLdhs_T35akEsMAt7-53" target="xFUZLdhs_T35akEsMAt7-55">
          <mxGeometry relative="1" as="geometry" />
        </mxCell>
        <mxCell id="xFUZLdhs_T35akEsMAt7-63" value="Требует" style="edgeLabel;html=1;align=center;verticalAlign=middle;resizable=0;points=[];rounded=1;" vertex="1" connectable="0" parent="xFUZLdhs_T35akEsMAt7-62">
          <mxGeometry x="-0.0537" relative="1" as="geometry">
            <mxPoint as="offset" />
          </mxGeometry>
        </mxCell>
        <mxCell id="xFUZLdhs_T35akEsMAt7-53" value="Заказ" style="ellipse;whiteSpace=wrap;html=1;aspect=fixed;rounded=1;" vertex="1" parent="1">
          <mxGeometry x="400" y="840" width="80" height="80" as="geometry" />
        </mxCell>
        <mxCell id="xFUZLdhs_T35akEsMAt7-54" value="Блюдо" style="ellipse;whiteSpace=wrap;html=1;aspect=fixed;rounded=1;" vertex="1" parent="1">
          <mxGeometry x="400" y="1000" width="80" height="80" as="geometry" />
        </mxCell>
        <mxCell id="xFUZLdhs_T35akEsMAt7-55" value="Оплата" style="ellipse;whiteSpace=wrap;html=1;aspect=fixed;rounded=1;" vertex="1" parent="1">
          <mxGeometry x="160" y="1090" width="80" height="80" as="geometry" />
        </mxCell>
        <mxCell id="xFUZLdhs_T35akEsMAt7-67" style="rounded=1;orthogonalLoop=1;jettySize=auto;html=1;exitX=1;exitY=0.5;exitDx=0;exitDy=0;entryX=0.5;entryY=1;entryDx=0;entryDy=0;" edge="1" parent="1" source="xFUZLdhs_T35akEsMAt7-56" target="xFUZLdhs_T35akEsMAt7-54">
          <mxGeometry relative="1" as="geometry" />
        </mxCell>
        <mxCell id="xFUZLdhs_T35akEsMAt7-68" value="Обновляет" style="edgeLabel;html=1;align=center;verticalAlign=middle;resizable=0;points=[];rounded=1;" vertex="1" connectable="0" parent="xFUZLdhs_T35akEsMAt7-67">
          <mxGeometry x="-0.3526" y="3" relative="1" as="geometry">
            <mxPoint as="offset" />
          </mxGeometry>
        </mxCell>
        <mxCell id="xFUZLdhs_T35akEsMAt7-71" style="rounded=1;orthogonalLoop=1;jettySize=auto;html=1;exitX=1;exitY=1;exitDx=0;exitDy=0;entryX=0;entryY=0.5;entryDx=0;entryDy=0;" edge="1" parent="1" source="xFUZLdhs_T35akEsMAt7-56" target="xFUZLdhs_T35akEsMAt7-70">
          <mxGeometry relative="1" as="geometry" />
        </mxCell>
        <mxCell id="xFUZLdhs_T35akEsMAt7-73" value="Уведомляет" style="edgeLabel;html=1;align=center;verticalAlign=middle;resizable=0;points=[];rounded=1;" vertex="1" connectable="0" parent="xFUZLdhs_T35akEsMAt7-71">
          <mxGeometry x="-0.1973" y="1" relative="1" as="geometry">
            <mxPoint as="offset" />
          </mxGeometry>
        </mxCell>
        <mxCell id="xFUZLdhs_T35akEsMAt7-56" value="Система управления" style="ellipse;whiteSpace=wrap;html=1;aspect=fixed;rounded=1;" vertex="1" parent="1">
          <mxGeometry x="160" y="1250" width="80" height="80" as="geometry" />
        </mxCell>
        <mxCell id="xFUZLdhs_T35akEsMAt7-65" style="rounded=1;orthogonalLoop=1;jettySize=auto;html=1;exitX=1;exitY=0;exitDx=0;exitDy=0;entryX=0.283;entryY=0.906;entryDx=0;entryDy=0;entryPerimeter=0;" edge="1" parent="1" source="xFUZLdhs_T35akEsMAt7-56" target="xFUZLdhs_T35akEsMAt7-53">
          <mxGeometry relative="1" as="geometry" />
        </mxCell>
        <mxCell id="xFUZLdhs_T35akEsMAt7-66" value="Обрабатывает" style="edgeLabel;html=1;align=center;verticalAlign=middle;resizable=0;points=[];rounded=1;" vertex="1" connectable="0" parent="xFUZLdhs_T35akEsMAt7-65">
          <mxGeometry x="-0.4303" y="-3" relative="1" as="geometry">
            <mxPoint as="offset" />
          </mxGeometry>
        </mxCell>
        <mxCell id="xFUZLdhs_T35akEsMAt7-72" style="rounded=1;orthogonalLoop=1;jettySize=auto;html=1;entryX=1;entryY=1;entryDx=0;entryDy=0;" edge="1" parent="1" source="xFUZLdhs_T35akEsMAt7-70" target="xFUZLdhs_T35akEsMAt7-54">
          <mxGeometry relative="1" as="geometry" />
        </mxCell>
        <mxCell id="xFUZLdhs_T35akEsMAt7-74" value="Готовит" style="edgeLabel;html=1;align=center;verticalAlign=middle;resizable=0;points=[];rounded=1;" vertex="1" connectable="0" parent="xFUZLdhs_T35akEsMAt7-72">
          <mxGeometry x="-0.1756" y="3" relative="1" as="geometry">
            <mxPoint as="offset" />
          </mxGeometry>
        </mxCell>
        <mxCell id="xFUZLdhs_T35akEsMAt7-70" value="Повар" style="ellipse;whiteSpace=wrap;html=1;aspect=fixed;rounded=1;" vertex="1" parent="1">
          <mxGeometry x="420" y="1250" width="80" height="80" as="geometry" />
        </mxCell>
        <mxCell id="xFUZLdhs_T35akEsMAt7-75" value="Сайт ресторан" style="ellipse;whiteSpace=wrap;html=1;aspect=fixed;" vertex="1" parent="1">
          <mxGeometry x="130" y="554" width="80" height="80" as="geometry" />
        </mxCell>
        <mxCell id="xFUZLdhs_T35akEsMAt7-76" value="Корзина" style="ellipse;whiteSpace=wrap;html=1;aspect=fixed;" vertex="1" parent="1">
          <mxGeometry x="20" y="424" width="80" height="80" as="geometry" />
        </mxCell>
        <mxCell id="xFUZLdhs_T35akEsMAt7-77" value="Личный кабинет пользователя" style="ellipse;whiteSpace=wrap;html=1;aspect=fixed;" vertex="1" parent="1">
          <mxGeometry x="240" y="424" width="80" height="80" as="geometry" />
        </mxCell>
        <mxCell id="xFUZLdhs_T35akEsMAt7-78" value="Меню" style="ellipse;whiteSpace=wrap;html=1;aspect=fixed;" vertex="1" parent="1">
          <mxGeometry x="130" y="424" width="80" height="80" as="geometry" />
        </mxCell>
        <mxCell id="xFUZLdhs_T35akEsMAt7-79" value="Бухгалтерия" style="ellipse;whiteSpace=wrap;html=1;aspect=fixed;" vertex="1" parent="1">
          <mxGeometry x="450" y="554" width="80" height="80" as="geometry" />
        </mxCell>
        <mxCell id="xFUZLdhs_T35akEsMAt7-80" value="Автоматическая фиксация транзацкий" style="ellipse;whiteSpace=wrap;html=1;aspect=fixed;" vertex="1" parent="1">
          <mxGeometry x="340" y="424" width="80" height="80" as="geometry" />
        </mxCell>
        <mxCell id="xFUZLdhs_T35akEsMAt7-81" value="Передача данных в налоговые системы" style="ellipse;whiteSpace=wrap;html=1;aspect=fixed;" vertex="1" parent="1">
          <mxGeometry x="560" y="424" width="80" height="80" as="geometry" />
        </mxCell>
        <mxCell id="xFUZLdhs_T35akEsMAt7-82" value="Генерация финансовых отчетов" style="ellipse;whiteSpace=wrap;html=1;aspect=fixed;" vertex="1" parent="1">
          <mxGeometry x="450" y="424" width="80" height="80" as="geometry" />
        </mxCell>
        <mxCell id="xFUZLdhs_T35akEsMAt7-83" value="Разработчики" style="ellipse;whiteSpace=wrap;html=1;aspect=fixed;" vertex="1" parent="1">
          <mxGeometry x="770" y="554" width="80" height="80" as="geometry" />
        </mxCell>
        <mxCell id="xFUZLdhs_T35akEsMAt7-84" value="Backend" style="ellipse;whiteSpace=wrap;html=1;aspect=fixed;" vertex="1" parent="1">
          <mxGeometry x="660" y="424" width="80" height="80" as="geometry" />
        </mxCell>
        <mxCell id="xFUZLdhs_T35akEsMAt7-85" value="UI/UX" style="ellipse;whiteSpace=wrap;html=1;aspect=fixed;" vertex="1" parent="1">
          <mxGeometry x="880" y="424" width="80" height="80" as="geometry" />
        </mxCell>
        <mxCell id="xFUZLdhs_T35akEsMAt7-86" value="Frontend" style="ellipse;whiteSpace=wrap;html=1;aspect=fixed;" vertex="1" parent="1">
          <mxGeometry x="770" y="424" width="80" height="80" as="geometry" />
        </mxCell>
        <mxCell id="xFUZLdhs_T35akEsMAt7-120" style="edgeStyle=orthogonalEdgeStyle;rounded=0;orthogonalLoop=1;jettySize=auto;html=1;exitX=0.5;exitY=0;exitDx=0;exitDy=0;entryX=0.5;entryY=1;entryDx=0;entryDy=0;curved=0;" edge="1" parent="1">
          <mxGeometry relative="1" as="geometry">
            <mxPoint x="1300" y="558" as="sourcePoint" />
            <mxPoint x="1532" y="508" as="targetPoint" />
            <Array as="points">
              <mxPoint x="1300" y="534" />
              <mxPoint x="1532" y="534" />
            </Array>
          </mxGeometry>
        </mxCell>
        <mxCell id="xFUZLdhs_T35akEsMAt7-121" style="edgeStyle=orthogonalEdgeStyle;rounded=0;orthogonalLoop=1;jettySize=auto;html=1;exitX=0.5;exitY=0;exitDx=0;exitDy=0;entryX=0.5;entryY=1;entryDx=0;entryDy=0;curved=0;" edge="1" parent="1">
          <mxGeometry relative="1" as="geometry">
            <mxPoint x="1300" y="558" as="sourcePoint" />
            <mxPoint x="1665" y="508" as="targetPoint" />
            <Array as="points">
              <mxPoint x="1300" y="534" />
              <mxPoint x="1665" y="534" />
            </Array>
          </mxGeometry>
        </mxCell>
        <mxCell id="xFUZLdhs_T35akEsMAt7-92" value="Кухня" style="ellipse;whiteSpace=wrap;html=1;aspect=fixed;" vertex="1" parent="1">
          <mxGeometry x="1260" y="554" width="80" height="80" as="geometry" />
        </mxCell>
        <mxCell id="xFUZLdhs_T35akEsMAt7-93" value="Автоматический учет запасов на складе" style="ellipse;whiteSpace=wrap;html=1;aspect=fixed;" vertex="1" parent="1">
          <mxGeometry x="1040" y="400" width="104" height="104" as="geometry" />
        </mxCell>
        <mxCell id="xFUZLdhs_T35akEsMAt7-94" value="Автоматическое формирование заявок на пополнение склада" style="ellipse;whiteSpace=wrap;html=1;aspect=fixed;" vertex="1" parent="1">
          <mxGeometry x="1260" y="400" width="104" height="104" as="geometry" />
        </mxCell>
        <mxCell id="xFUZLdhs_T35akEsMAt7-95" value="Оптимизация готовки блюд" style="ellipse;whiteSpace=wrap;html=1;aspect=fixed;" vertex="1" parent="1">
          <mxGeometry x="1150" y="400" width="104" height="104" as="geometry" />
        </mxCell>
        <mxCell id="xFUZLdhs_T35akEsMAt7-96" value="Планирование маршрутов доставки" style="ellipse;whiteSpace=wrap;html=1;aspect=fixed;" vertex="1" parent="1">
          <mxGeometry x="1370" y="400" width="104" height="104" as="geometry" />
        </mxCell>
        <mxCell id="xFUZLdhs_T35akEsMAt7-97" value="Отслеживание статуса отправлений в реальном времени" style="ellipse;whiteSpace=wrap;html=1;aspect=fixed;" vertex="1" parent="1">
          <mxGeometry x="1480" y="400" width="104" height="104" as="geometry" />
        </mxCell>
        <mxCell id="xFUZLdhs_T35akEsMAt7-98" value="" style="endArrow=none;html=1;rounded=0;exitX=0.5;exitY=1;exitDx=0;exitDy=0;entryX=0.5;entryY=1;entryDx=0;entryDy=0;" edge="1" parent="1" source="xFUZLdhs_T35akEsMAt7-76" target="xFUZLdhs_T35akEsMAt7-77">
          <mxGeometry width="50" height="50" relative="1" as="geometry">
            <mxPoint x="90" y="574" as="sourcePoint" />
            <mxPoint x="140" y="524" as="targetPoint" />
            <Array as="points">
              <mxPoint x="60" y="534" />
              <mxPoint x="280" y="534" />
            </Array>
          </mxGeometry>
        </mxCell>
        <mxCell id="xFUZLdhs_T35akEsMAt7-99" value="" style="endArrow=classic;html=1;rounded=0;exitX=0.5;exitY=1;exitDx=0;exitDy=0;entryX=0.5;entryY=0;entryDx=0;entryDy=0;" edge="1" parent="1" source="xFUZLdhs_T35akEsMAt7-78" target="xFUZLdhs_T35akEsMAt7-75">
          <mxGeometry width="50" height="50" relative="1" as="geometry">
            <mxPoint x="270" y="634" as="sourcePoint" />
            <mxPoint x="320" y="584" as="targetPoint" />
          </mxGeometry>
        </mxCell>
        <mxCell id="xFUZLdhs_T35akEsMAt7-100" value="" style="endArrow=none;html=1;rounded=0;exitX=0.5;exitY=1;exitDx=0;exitDy=0;entryX=0.5;entryY=1;entryDx=0;entryDy=0;" edge="1" parent="1">
          <mxGeometry width="50" height="50" relative="1" as="geometry">
            <mxPoint x="380" y="504" as="sourcePoint" />
            <mxPoint x="600" y="504" as="targetPoint" />
            <Array as="points">
              <mxPoint x="380" y="534" />
              <mxPoint x="600" y="534" />
            </Array>
          </mxGeometry>
        </mxCell>
        <mxCell id="xFUZLdhs_T35akEsMAt7-101" value="" style="endArrow=classic;html=1;rounded=0;exitX=0.5;exitY=1;exitDx=0;exitDy=0;entryX=0.5;entryY=0;entryDx=0;entryDy=0;" edge="1" parent="1">
          <mxGeometry width="50" height="50" relative="1" as="geometry">
            <mxPoint x="490" y="504" as="sourcePoint" />
            <mxPoint x="490" y="554" as="targetPoint" />
          </mxGeometry>
        </mxCell>
        <mxCell id="xFUZLdhs_T35akEsMAt7-102" value="" style="endArrow=none;html=1;rounded=0;exitX=0.5;exitY=1;exitDx=0;exitDy=0;entryX=0.5;entryY=1;entryDx=0;entryDy=0;" edge="1" parent="1">
          <mxGeometry width="50" height="50" relative="1" as="geometry">
            <mxPoint x="700" y="504" as="sourcePoint" />
            <mxPoint x="920" y="504" as="targetPoint" />
            <Array as="points">
              <mxPoint x="700" y="534" />
              <mxPoint x="920" y="534" />
            </Array>
          </mxGeometry>
        </mxCell>
        <mxCell id="xFUZLdhs_T35akEsMAt7-103" value="" style="endArrow=classic;html=1;rounded=0;exitX=0.5;exitY=1;exitDx=0;exitDy=0;entryX=0.5;entryY=0;entryDx=0;entryDy=0;" edge="1" parent="1">
          <mxGeometry width="50" height="50" relative="1" as="geometry">
            <mxPoint x="810" y="504" as="sourcePoint" />
            <mxPoint x="810" y="554" as="targetPoint" />
          </mxGeometry>
        </mxCell>
        <mxCell id="xFUZLdhs_T35akEsMAt7-107" value="" style="endArrow=none;html=1;rounded=0;exitX=0.5;exitY=1;exitDx=0;exitDy=0;entryX=0.5;entryY=1;entryDx=0;entryDy=0;" edge="1" parent="1">
          <mxGeometry width="50" height="50" relative="1" as="geometry">
            <mxPoint x="1080" y="504" as="sourcePoint" />
            <mxPoint x="1410" y="504" as="targetPoint" />
            <Array as="points">
              <mxPoint x="1080" y="534" />
              <mxPoint x="1410" y="534" />
            </Array>
          </mxGeometry>
        </mxCell>
        <mxCell id="xFUZLdhs_T35akEsMAt7-108" value="" style="endArrow=none;html=1;rounded=0;entryX=0.5;entryY=1;entryDx=0;entryDy=0;exitX=0.5;exitY=1;exitDx=0;exitDy=0;" edge="1" parent="1">
          <mxGeometry width="50" height="50" relative="1" as="geometry">
            <mxPoint x="1300" y="504" as="sourcePoint" />
            <mxPoint x="1190" y="504" as="targetPoint" />
            <Array as="points">
              <mxPoint x="1300" y="534" />
              <mxPoint x="1190" y="534" />
            </Array>
          </mxGeometry>
        </mxCell>
        <mxCell id="xFUZLdhs_T35akEsMAt7-109" value="" style="endArrow=classic;html=1;rounded=0;entryX=0.5;entryY=0;entryDx=0;entryDy=0;" edge="1" parent="1" target="xFUZLdhs_T35akEsMAt7-92">
          <mxGeometry width="50" height="50" relative="1" as="geometry">
            <mxPoint x="1300" y="534" as="sourcePoint" />
            <mxPoint x="1250" y="554" as="targetPoint" />
          </mxGeometry>
        </mxCell>
        <mxCell id="xFUZLdhs_T35akEsMAt7-111" value="&lt;div&gt;Координация роботизированных систем упаковки&lt;/div&gt;" style="ellipse;whiteSpace=wrap;html=1;aspect=fixed;" vertex="1" parent="1">
          <mxGeometry x="1613" y="400" width="104" height="104" as="geometry" />
        </mxCell>
        <mxCell id="xFUZLdhs_T35akEsMAt7-114" value="Интернет&amp;nbsp;&lt;div&gt;магазин&lt;/div&gt;" style="ellipse;whiteSpace=wrap;html=1;aspect=fixed;" vertex="1" parent="1">
          <mxGeometry x="867" y="783" width="80" height="80" as="geometry" />
        </mxCell>
        <mxCell id="xFUZLdhs_T35akEsMAt7-115" value="" style="endArrow=none;html=1;rounded=0;entryX=0.5;entryY=1;entryDx=0;entryDy=0;exitX=0.5;exitY=1;exitDx=0;exitDy=0;" edge="1" parent="1" source="xFUZLdhs_T35akEsMAt7-92" target="xFUZLdhs_T35akEsMAt7-75">
          <mxGeometry width="50" height="50" relative="1" as="geometry">
            <mxPoint x="162" y="753" as="sourcePoint" />
            <mxPoint x="212" y="703" as="targetPoint" />
            <Array as="points">
              <mxPoint x="1300" y="711" />
              <mxPoint x="170" y="711" />
            </Array>
          </mxGeometry>
        </mxCell>
        <mxCell id="xFUZLdhs_T35akEsMAt7-116" value="" style="endArrow=none;html=1;rounded=0;entryX=0.5;entryY=1;entryDx=0;entryDy=0;" edge="1" parent="1" target="xFUZLdhs_T35akEsMAt7-79">
          <mxGeometry width="50" height="50" relative="1" as="geometry">
            <mxPoint x="490" y="708" as="sourcePoint" />
            <mxPoint x="479" y="751" as="targetPoint" />
          </mxGeometry>
        </mxCell>
        <mxCell id="xFUZLdhs_T35akEsMAt7-117" value="" style="endArrow=none;html=1;rounded=0;entryX=0.5;entryY=1;entryDx=0;entryDy=0;" edge="1" parent="1">
          <mxGeometry width="50" height="50" relative="1" as="geometry">
            <mxPoint x="809.72" y="708" as="sourcePoint" />
            <mxPoint x="809.72" y="634" as="targetPoint" />
          </mxGeometry>
        </mxCell>
        <mxCell id="xFUZLdhs_T35akEsMAt7-119" value="" style="endArrow=classic;html=1;rounded=0;entryX=0.5;entryY=0;entryDx=0;entryDy=0;" edge="1" parent="1" target="xFUZLdhs_T35akEsMAt7-114">
          <mxGeometry width="50" height="50" relative="1" as="geometry">
            <mxPoint x="908" y="709" as="sourcePoint" />
            <mxPoint x="878" y="721" as="targetPoint" />
          </mxGeometry>
        </mxCell>
      </root>
    </mxGraphModel>
  </diagram>
</mxfile>
